<svg width="734" height="770" viewBox="0 0 734 770" fill="none" xmlns="http://www.w3.org/2000/svg">
<path d="M392.827 0C427.463 0.000198219 457.223 23.8493 463.74 56.832L466.637 71.499C478.027 129.148 539.531 163.574 596.721 144.313L611.277 139.411C643.997 128.392 680.18 141.453 697.497 170.535L723.657 214.463C740.977 243.546 734.55 280.456 708.347 302.418L696.693 312.186C650.89 350.574 650.89 419.427 696.693 457.813L708.347 467.581C734.55 489.544 740.977 526.454 723.657 555.537L697.5 599.464C680.18 628.547 643.997 641.607 611.273 630.587L596.724 625.684C539.53 606.42 478.027 640.848 466.637 698.501L463.74 713.167C457.223 746.15 427.464 770.001 392.827 770.001H340.507C305.87 770.001 276.11 746.151 269.594 713.171L266.694 698.494C255.303 640.848 193.798 606.42 136.607 625.684L122.059 630.584C89.3386 641.607 53.1548 628.544 35.8348 599.461L9.67665 555.537C-7.64246 526.454 -1.21816 489.544 24.9852 467.581L36.6405 457.813C82.441 419.423 82.441 350.574 36.6405 312.188L24.9852 302.419C-1.21854 280.456 -7.64265 243.547 9.67665 214.464L35.8358 170.536C53.1551 141.453 89.338 128.392 122.058 139.412L136.61 144.313C193.8 163.574 255.303 129.15 266.694 71.5029L269.594 56.8301C276.111 23.8485 305.867 5.88956e-05 340.507 0H392.827ZM366.667 130.001C225.834 130.001 111.667 244.168 111.667 385.001C111.667 525.834 225.834 640.001 366.667 640.001C507.499 640.001 621.667 525.833 621.667 385.001C621.667 244.168 507.499 130.001 366.667 130.001ZM259.033 255.001C267.563 255.008 275.741 258.424 281.77 264.499C287.799 270.574 291.186 278.811 291.186 287.398C291.171 294.919 288.556 302.201 283.792 307.993C279.027 313.786 272.409 317.729 265.073 319.146V378.465H360.202V319.146L341.444 327.664L366.242 260.228L391.04 327.664L372.282 319.146V378.465H467.504V319.146C460.162 317.735 453.537 313.795 448.766 308.002C443.996 302.209 441.377 294.924 441.36 287.398C441.36 278.832 444.73 270.614 450.732 264.543C456.735 258.472 464.881 255.041 473.39 255.001H473.514C482.043 255.008 490.222 258.424 496.251 264.499C502.28 270.574 505.667 278.811 505.667 287.398C505.65 294.924 503.031 302.209 498.261 308.002C493.49 313.795 486.864 317.735 479.522 319.146V390.627H372.282V449.945C379.635 451.359 386.268 455.308 391.04 461.114C395.812 466.92 398.424 474.22 398.427 481.756C398.42 490.339 395.03 498.57 389.002 504.64C382.973 510.709 374.799 514.121 366.273 514.128C362.047 514.133 357.86 513.299 353.953 511.675C350.046 510.05 346.495 507.667 343.504 504.661C340.512 501.655 338.138 498.084 336.517 494.154C334.897 490.224 334.061 486.011 334.058 481.756C334.06 474.22 336.672 466.92 341.444 461.114C346.216 455.308 352.85 451.359 360.202 449.945V390.627H265.073V449.945C272.42 451.365 279.046 455.318 283.811 461.123C288.577 466.929 291.185 474.224 291.186 481.756C291.18 490.339 287.79 498.57 281.762 504.64C275.733 510.709 267.558 514.121 259.033 514.128C250.503 514.128 242.322 510.719 236.288 504.648C230.254 498.578 226.861 490.344 226.854 481.756C226.857 474.22 229.469 466.92 234.241 461.114C239.013 455.308 245.647 451.359 252.999 449.945V319.146C245.657 317.735 239.031 313.795 234.261 308.002C229.49 302.209 226.871 294.924 226.854 287.398C226.854 278.834 230.223 270.618 236.223 264.547C242.222 258.476 250.366 255.044 258.872 255.001C258.925 255.001 258.98 255.001 259.033 255.001ZM351.602 317.003L364.403 311.879L364.74 382.979H257.633V463.67C248.318 464.383 240.98 472.22 240.979 481.781C240.979 491.813 249.057 499.945 259.02 499.945C268.984 499.945 277.06 491.812 277.06 481.781C277.06 472.356 269.93 464.608 260.805 463.706V386.173H364.755V386.174H368.275V311.879L381.34 317.003L365.978 277.194L351.602 317.003Z" fill="#FC094C"/>
</svg>
